<svg xmlns="http://www.w3.org/2000/svg" viewBox="0 0 24 24" fill="none">
  <path d="M13.483 0a1.374 1.374 0 0 0-.961.438L7.116 6.226l-3.854 4.126a5.266 5.266 0 0 0-1.209 2.104 5.35 5.35 0 0 0-.125.513 5.527 5.527 0 0 0 .062 2.362 5.83 5.83 0 0 0 .349 1.017 5.938 5.938 0 0 0 1.271 1.818l4.277 4.193.039.038c2.248 2.165 5.857 2.133 8.046-.074l8.774-8.401a1.388 1.388 0 0 0 .408-.983 1.391 1.391 0 0 0-.408-.984L13.483.439A1.388 1.388 0 0 0 13.483 0z" fill="#FFA116"/>
  <path d="m3.5 14.25 8.5-8.5 8.5 8.5" stroke="#B3B3B3" stroke-width="1.5" stroke-linecap="round" stroke-linejoin="round" fill="none"/>
  <path d="m8.5 19.25 7-7 7 7" stroke="#FFA116" stroke-width="1.5" stroke-linecap="round" stroke-linejoin="round" fill="none"/>
</svg>